<svg height="512pt" viewBox="0 -9 512 512" width="512pt" xmlns="http://www.w3.org/2000/svg"><path d="m181.140625 0c-25.5625 0-43.421875 17.964844-50.757813 41.03125-3.917968-1.042969-11.730468-3.003906-15.976562-3.003906-26.324219 0-47.667969 21.285156-47.667969 47.539062 0 8.878906 2.601563 17.097656 6.847657 24.203125-4.640626-3.246093-10.273438-5.199219-16.382813-5.199219-15.792969 0-34.402344 19.015626-21.894531 36.671876-17.441406 3.496093-35.308594 20.957031-35.308594 39.386718 0 14.433594 8.15625 26.828125 20.03125 33.273438-11.875 6.441406-20.03125 18.835937-20.03125 33.269531 0 16.5625 10.679688 30.5 25.484375 35.71875-9.628906 6.902344-15.949219 18.09375-15.949219 30.824219 0 14.75 8.515625 27.402344 20.832032 33.703125-1.113282 4.433593-1.765626 9.046875-1.765626 13.824219 0 31.507812 25.609376 57.042968 57.203126 57.042968 0 42.003906 34.144531 76.050782 76.269531 76.050782 38.964843 0 71.671875-28.9375 76.269531-66.542969v-370.757813c0-31.496094-25.609375-57.035156-57.203125-57.035156zm0 0" fill="#dd5e79"/><g fill="#bc4b69"><path d="m132.414062 414.898438c-15.34375 0-26.484374-11.140626-26.484374-26.484376s11.140624-26.484374 26.484374-26.484374c4.871094 0 8.828126 3.949218 8.828126 8.828124 0 4.882813-3.957032 8.828126-8.828126 8.828126-5.613281 0-8.828124 3.214843-8.828124 8.828124 0 5.613282 3.214843 8.828126 8.828124 8.828126 4.871094 0 8.828126 3.945312 8.828126 8.828124 0 4.878907-3.957032 8.828126-8.828126 8.828126zm0 0"/><path d="m167.722656 459.035156c-4.871094 0-8.824218-3.945312-8.824218-8.828125 0-4.882812 3.953124-8.828125 8.824218-8.828125 5.617188 0 8.828125-3.210937 8.828125-8.828125 0-5.613281-3.210937-8.828125-8.828125-8.828125-4.871094 0-8.824218-3.945312-8.824218-8.824218 0-4.882813 3.953124-8.828126 8.824218-8.828126 15.34375 0 26.484375 11.140626 26.484375 26.480469 0 15.34375-11.140625 26.484375-26.484375 26.484375zm0 0"/><path d="m158.898438 300.136719c-24.339844 0-44.140626-19.800781-44.140626-44.136719 0-4.882812 3.957032-8.828125 8.828126-8.828125 4.875 0 8.828124 3.945313 8.828124 8.828125 0 14.601562 11.882813 26.484375 26.484376 26.484375 14.597656 0 26.480468-11.882813 26.480468-26.484375s-11.882812-26.484375-26.480468-26.484375c-4.875 0-8.828126-3.945313-8.828126-8.824219 0-4.882812 3.953126-8.828125 8.828126-8.828125 24.335937 0 44.136718 19.800781 44.136718 44.136719s-19.800781 44.136719-44.136718 44.136719zm0 0"/><path d="m150.070312 185.378906c-19.476562 0-35.3125-15.835937-35.3125-35.308594 0-19.476562 15.835938-35.3125 35.3125-35.3125 19.472657 0 35.308594 15.835938 35.308594 35.3125 0 4.878907-3.953125 8.828126-8.828125 8.828126-4.871093 0-8.828125-3.949219-8.828125-8.828126 0-9.738281-7.917968-17.65625-17.652344-17.65625-9.738281 0-17.65625 7.917969-17.65625 17.65625 0 9.734376 7.917969 17.652344 17.65625 17.652344 4.871094 0 8.828126 3.949219 8.828126 8.828125 0 4.882813-3.957032 8.828125-8.828126 8.828125zm0 0"/><path d="m167.722656 88.277344c0-18.300782-15.058594-44.007813-32.226562-59.09375-1.996094 3.761718-3.78125 7.679687-5.113282 11.847656-2.769531-.734375-7.476562-1.917969-11.511718-2.550781 14.601562 10.042969 31.199218 35.308593 31.199218 49.796875 0 4.878906 3.953126 8.824218 8.828126 8.824218 4.871093 0 8.824218-3.945312 8.824218-8.824218zm0 0"/><path d="m61.792969 176.550781c0 4.882813 3.953125 8.828125 8.828125 8.828125 4.871094 0 8.828125-3.945312 8.828125-8.828125 0-20.628906-24.328125-34.445312-46.882813-40.542969.660156 1.746094 1.507813 3.496094 2.742188 5.234376-6.644532 1.332031-13.34375 4.714843-19.109375 9.382812 19.261719 2.640625 45.59375 14.363281 45.59375 25.925781zm0 0"/><path d="m88.277344 291.308594c-25.714844 0-54.6875 21.53125-69.519532 46.980468 3.230469 3.726563 7.160157 6.851563 11.609376 9.128907-.882813 3.523437-1.367188 7.195312-1.570313 10.9375 8.136719-23.949219 36.898437-49.390625 59.480469-49.390625 4.871094 0 8.824218-3.945313 8.824218-8.828125 0-4.878907-3.953124-8.828125-8.824218-8.828125zm0 0"/><path d="m167.722656 326.621094c-4.871094 0-8.824218 3.945312-8.824218 8.828125 0 4.878906 3.953124 8.828125 8.824218 8.828125 38.941406 0 70.621094 31.679687 70.621094 70.621094v-52.738282c-16.109375-21.519531-41.726562-35.539062-70.621094-35.539062zm0 0"/></g><path d="m330.859375 0c25.5625 0 43.421875 17.964844 50.757813 41.03125 3.917968-1.042969 11.730468-3.003906 15.976562-3.003906 26.324219 0 47.667969 21.285156 47.667969 47.539062 0 8.878906-2.601563 17.097656-6.847657 24.203125 4.640626-3.246093 10.273438-5.199219 16.382813-5.199219 15.792969 0 34.402344 19.015626 21.894531 36.671876 17.441406 3.496093 35.308594 20.957031 35.308594 39.386718 0 14.433594-8.15625 26.828125-20.03125 33.273438 11.875 6.441406 20.03125 18.835937 20.03125 33.269531 0 16.5625-10.679688 30.5-25.484375 35.71875 9.628906 6.902344 15.949219 18.09375 15.949219 30.824219 0 14.75-8.515625 27.402344-20.832032 33.703125 1.113282 4.433593 1.765626 9.046875 1.765626 13.824219 0 31.507812-25.609376 57.042968-57.203126 57.042968 0 42.003906-34.144531 76.050782-76.269531 76.050782-38.964843 0-71.671875-28.9375-76.269531-66.542969v-370.757813c0-31.496094 25.609375-57.035156 57.203125-57.035156zm0 0" fill="#cb465f"/><path d="m379.585938 414.898438c15.34375 0 26.484374-11.140626 26.484374-26.484376s-11.140624-26.484374-26.484374-26.484374c-4.871094 0-8.828126 3.949218-8.828126 8.828124 0 4.882813 3.957032 8.828126 8.828126 8.828126 5.613281 0 8.828124 3.214843 8.828124 8.828124 0 5.613282-3.214843 8.828126-8.828124 8.828126-4.871094 0-8.828126 3.945312-8.828126 8.828124 0 4.878907 3.957032 8.828126 8.828126 8.828126zm0 0" fill="#aa354f"/><path d="m344.277344 459.035156c4.871094 0 8.824218-3.945312 8.824218-8.828125 0-4.882812-3.953124-8.828125-8.824218-8.828125-5.617188 0-8.828125-3.210937-8.828125-8.828125 0-5.613281 3.210937-8.828125 8.828125-8.828125 4.871094 0 8.824218-3.945312 8.824218-8.824218 0-4.882813-3.953124-8.828126-8.824218-8.828126-15.34375 0-26.484375 11.140626-26.484375 26.480469 0 15.34375 11.140625 26.484375 26.484375 26.484375zm0 0" fill="#aa354f"/><path d="m353.101562 300.136719c24.339844 0 44.140626-19.800781 44.140626-44.136719 0-4.882812-3.957032-8.828125-8.828126-8.828125-4.875 0-8.828124 3.945313-8.828124 8.828125 0 14.601562-11.882813 26.484375-26.484376 26.484375-14.597656 0-26.480468-11.882813-26.480468-26.484375s11.882812-26.484375 26.480468-26.484375c4.875 0 8.828126-3.945313 8.828126-8.824219 0-4.882812-3.953126-8.828125-8.828126-8.828125-24.335937 0-44.136718 19.800781-44.136718 44.136719s19.800781 44.136719 44.136718 44.136719zm0 0" fill="#aa354f"/><path d="m361.929688 185.378906c19.476562 0 35.3125-15.835937 35.3125-35.308594 0-19.476562-15.835938-35.3125-35.3125-35.3125-19.472657 0-35.308594 15.835938-35.308594 35.3125 0 4.878907 3.953125 8.828126 8.828125 8.828126 4.871093 0 8.828125-3.949219 8.828125-8.828126 0-9.738281 7.917968-17.65625 17.652344-17.65625 9.738281 0 17.65625 7.917969 17.65625 17.65625 0 9.734376-7.917969 17.652344-17.65625 17.652344-4.871094 0-8.828126 3.949219-8.828126 8.828125 0 4.882813 3.957032 8.828125 8.828126 8.828125zm0 0" fill="#aa354f"/><path d="m344.277344 88.277344c0-18.300782 15.058594-44.007813 32.226562-59.09375 1.996094 3.761718 3.78125 7.679687 5.113282 11.847656 2.769531-.734375 7.476562-1.917969 11.511718-2.550781-14.601562 10.042969-31.199218 35.308593-31.199218 49.796875 0 4.878906-3.953126 8.824218-8.828126 8.824218-4.871093 0-8.824218-3.945312-8.824218-8.824218zm0 0" fill="#aa354f"/><path d="m450.207031 176.550781c0 4.882813-3.953125 8.828125-8.828125 8.828125-4.871094 0-8.828125-3.945312-8.828125-8.828125 0-20.628906 24.328125-34.445312 46.882813-40.542969-.660156 1.746094-1.507813 3.496094-2.742188 5.234376 6.644532 1.332031 13.34375 4.714843 19.109375 9.382812-19.261719 2.640625-45.59375 14.363281-45.59375 25.925781zm0 0" fill="#aa354f"/><path d="m423.722656 291.308594c25.714844 0 54.6875 21.53125 69.519532 46.980468-3.230469 3.726563-7.160157 6.851563-11.609376 9.128907.882813 3.523437 1.367188 7.195312 1.570313 10.9375-8.136719-23.949219-36.898437-49.390625-59.480469-49.390625-4.871094 0-8.824218-3.945313-8.824218-8.828125 0-4.878907 3.953124-8.828125 8.824218-8.828125zm0 0" fill="#aa354f"/><path d="m344.277344 326.621094c4.871094 0 8.824218 3.945312 8.824218 8.828125 0 4.878906-3.953124 8.828125-8.824218 8.828125-38.941406 0-70.621094 31.679687-70.621094 70.621094v-52.738282c16.109375-21.519531 41.726562-35.539062 70.621094-35.539062zm0 0" fill="#aa354f"/></svg>