<?xml version="1.0" ?><!DOCTYPE svg  PUBLIC '-//W3C//DTD SVG 1.1//EN'  'http://www.w3.org/Graphics/SVG/1.1/DTD/svg11.dtd'><svg enable-background="new 0 0 75 75" height="75px" id="Layer_1" version="1.1" viewBox="0 0 75 75" width="75px" xml:space="preserve" xmlns="http://www.w3.org/2000/svg" xmlns:xlink="http://www.w3.org/1999/xlink"><g><g><g><path d="M6.313,52.6c0-4.754,11.559-8.615,25.816-8.615c14.254,0,25.811,3.861,25.811,8.615" fill="#AA1F4D"/></g><path d="M6.313,52.371v-8.162c0-4.758,11.559-8.615,25.816-8.615c14.254,0,25.811,3.857,25.811,8.615v8.162" fill="#F7F5DC"/><path d="M32.13,38.344c-14.258,0-25.816,3.857-25.816,8.615v5.639c0-4.758,11.559-8.615,25.816-8.615    c14.254,0,25.811,3.857,25.811,8.615v-5.639C57.94,42.201,46.384,38.344,32.13,38.344z" fill="#EAE8C3"/><g><path d="M6.313,52.6c0-4.754,11.559-8.615,25.816-8.615c14.254,0,25.811,3.861,25.811,8.615" fill="#939183"/></g><path d="M57.94,52.371c0,4.75-11.557,8.617-25.811,8.617c-14.258,0-25.816-3.867-25.816-8.617" fill="#C6C4A7"/><path d="M14.923,46.182c-0.59,0.57-0.936,1.18-0.986,1.812h-0.023c0,0.027,0.01,0.053,0.012,0.082    c-0.002,0.025-0.012,0.053-0.012,0.08h0.023c0.26,3.277,8.295,5.918,18.193,5.918c9.893,0,17.93-2.641,18.188-5.918h0.025    c0-0.027-0.012-0.055-0.014-0.08c0.002-0.029,0.014-0.055,0.014-0.082h-0.025c-0.049-0.633-0.396-1.242-0.984-1.812    c-4.566-1.365-10.592-2.197-17.203-2.197C25.517,43.984,19.487,44.816,14.923,46.182z" fill="#66655F"/><path d="M15.382,50.363c2.766,2.178,9.211,3.711,16.748,3.711c7.533,0,13.979-1.533,16.744-3.711    c-4.51-1.287-10.346-2.07-16.744-2.07C25.729,48.293,19.89,49.076,15.382,50.363z" fill="#72716A"/><g><path d="M32.13,35.594c10.496,0,19.514,2.1,23.553,5.1c-0.559-2.008-0.859-4.092-0.859-6.256     c0-4.025,1.035-7.816,2.826-11.209c-5.148-5.629-12.869-9.217-21.512-9.217c-15.502,0-28.064,11.518-28.064,25.727     c0,0.432,0.047,0.867,0.068,1.303C11.935,37.852,21.224,35.594,32.13,35.594z" fill="#E83862"/></g><path d="M36.138,19.002c-14.064,0-25.709,9.48-27.748,21.852c3.932-3.088,13.053-5.26,23.74-5.26    c9.826,0,18.355,1.84,22.717,4.535c-0.006-0.234-0.023-0.465-0.023-0.701c0-0.852,0.057-1.689,0.146-2.518    c-0.088-0.814-0.146-1.635-0.146-2.473c0-2.699,0.475-5.289,1.32-7.727C51.054,21.961,43.978,19.002,36.138,19.002z" fill="#BC2A54"/><path d="M15.522,37.631c4.482-1.268,10.264-2.037,16.607-2.037c9.826,0,18.355,1.84,22.717,4.535    c-0.006-0.234-0.023-0.465-0.023-0.701c0-0.852,0.057-1.689,0.146-2.518c-0.035-0.32-0.061-0.643-0.084-0.965    c-4.969-4.102-11.533-6.613-18.748-6.613C27.979,29.332,20.649,32.535,15.522,37.631z" fill="#AA1F4D"/><path d="M56.735,26.432c0,3.295,2.68,5.973,5.979,5.973c3.301,0,5.973-2.678,5.973-5.973    c0-3.305-2.672-5.984-5.973-5.984C59.415,20.447,56.735,23.127,56.735,26.432z" fill="#F7F5DC"/><path d="M57.737,23.117c-0.633,0.949-1.002,2.088-1.002,3.314c0,1.744,0.756,3.312,1.953,4.404    c0.629-0.947,0.998-2.082,0.998-3.303C59.687,25.781,58.933,24.213,57.737,23.117z" fill="#EAE8C3"/></g></g></svg>