<svg height="511pt" viewBox="-51 0 511 511.9875" width="511pt" xmlns="http://www.w3.org/2000/svg"><path d="m397.28125 368.367188c-3.6875-11.601563-8.261719-23.535157-13.761719-35.074219 12.023438-147.957031-88.335937-171.703125-132.554687-174.394531l71.644531-40.566407c4.226563-2.019531 6.074219-7.042969 3.972656-11.226562l-19.121093-38.234375c-2.011719-4.023438-6.816407-5.71875-10.894532-3.820313-7.378906 3.433594-19.808594 9.664063-34.742187 18.820313.042969-.027344.09375-.0625.140625-.089844-10.71875-21.609375-30.5-28.554688-45.261719-30.535156-12.109375-1.613282-22.074219-10.371094-25.933594-21.960938l-8.535156-25.609375c-1.121094-3.390625-4.292969-5.675781-7.867187-5.675781h-27.171876c-5.507812 0-9.480468 5.269531-7.96875 10.566406l8.90625 31.171875c2.9375 10.300781.441407 21.160157-6.144531 29.464844-27.066406-24.992187-55.992187-21.117187-72.238281-15.675781-9.8125 3.28125-20.476562 2.753906-30.082031-1.097656l-19.316407-7.714844c-4.261718-1.703125-9.101562.378906-10.785156 4.652344l-8.484375 21.453124c-2.242187 5.675782 2.226563 11.730469 8.308594 11.253907 33.058594-2.578125 57.148437 45.390625 72.289063 89.882812.167968.160157.316406.316407.484374.476563-15.511718-14.433594-34.84375-26.324219-55.773437-24.9375-3.046875.203125-5.648437 2.347656-6.78125 5.179687l-12.1875 30.492188c-1.847656 4.617187.765625 9.746093 5.558594 11.085937 16.113281 4.539063 46.011719 17.769532 26.121093 50.917969-18.441406 30.738281-23.957031 74.292969-1.800781 109.851563-23.796875 85.75 90.765625 160.988281 191.054688 141.886718 34.367187 19.445313 78.972656 13.539063 116.164062 5.535156 24.574219-5.289062 54.183594-14.601562 62.003907-42.59375 8.238281-29.539062-.246094-65.226562-9.242188-93.484374zm0 0" fill="#dd352e"/><path d="m219.53125 339.367188c1.277344-1.429688.757812-10.820313 1.136719-12.933594 1.878906-10.46875 5.921875-20.558594 12.007812-29.191406 23.160157-32.855469 73.824219-42.832032 106.601563-20.171876 29.613281 20.480469 47.207031 57.40625 57.996094 91.289063 8.996093 28.253906 17.488281 63.945313 9.242187 93.480469-7.8125 28.003906-37.429687 37.308594-62.003906 42.59375-40.238281 8.660156-89.203125 14.929687-124.425781-10.796875-23.765626-17.34375-41.25-44.152344-39.636719-75.066407 1.597656-30.421874 19.632812-57.511718 39.082031-79.203124zm0 0" fill="#dd352e"/><path d="m220.085938 493.65625c-23.765626-17.347656-41.261719-44.15625-39.636719-75.070312 1.597656-30.4375 19.632812-57.519532 39.082031-79.21875 1.277344-1.429688.757812-10.820313 1.136719-12.933594 1.640625-9.125 5.015625-17.902344 9.859375-25.730469-30.171875-31.636719-91.097656-71.734375-164.941406 8.261719-94.898438 102.796875 43.953124 212.578125 162.761718 189.945312-2.816406-1.597656-5.585937-3.304687-8.261718-5.253906zm0 0" fill="#931919"/><path d="m230.527344 300.703125c.714844-1.15625 1.371094-2.347656 2.148437-3.460937 6.855469-9.726563 16.160157-17.390626 26.65625-22.855469-15.492187-33.339844-35.890625-108.515625 63.277344-156.054688 4.21875-2.019531 6.074219-7.042969 3.972656-11.226562l-19.121093-38.234375c-2.011719-4.023438-6.816407-5.71875-10.894532-3.820313-30.9375 14.398438-149.988281 77.3125-174.0625 202.804688 47.734375-17.683594 86.042969 9.796875 108.023438 32.847656zm0 0" fill="#b02721"/><path d="m259.332031 274.386719s-.007812.011719-.015625.011719c24.972656-12.996094 56.882813-13.289063 79.960938 2.671874 19.472656 13.472657 33.675781 34.074219 44.234375 56.222657 12.03125-147.957031-70.515625-172.535157-114.722657-175.226563-35.390624 42.769532-21.074218 91.3125-9.457031 116.320313zm0 0" fill="#7383bf"/><path d="m113.148438 271.835938c3.160156-1.535157 6.285156-2.851563 9.375-4 18.335937-95.628907 91.816406-154.886719 139.449218-184.0625-10.714844-21.609376-30.5-28.558594-45.257812-30.535157-12.113282-1.613281-22.078125-10.371093-25.9375-21.960937l-8.535156-25.609375c-1.128907-3.382813-4.300782-5.667969-7.875-5.667969h-27.160157c-5.511719 0-9.492187 5.269531-7.972656 10.566406l8.90625 31.171875c3.214844 11.246094 0 23.179688-8.007813 31.707031-44.640624 47.546876-34.992187 148.957032-26.984374 198.390626zm0 0" fill="#dd352e"/><path d="m37.300781 357.023438c4.386719-15.835938 13.5-32.035157 28.285157-48.058594 16.570312-17.953125 32.484374-29.820313 47.554687-37.128906-2.914063-18-6.023437-42.929688-6.664063-69.605469-15.898437-21.839844-45.871093-55.011719-80.09375-52.734375-3.054687.203125-5.652343 2.347656-6.78125 5.179687l-12.199218 30.492188c-1.84375 4.617187.777344 9.746093 5.5625 11.085937 16.128906 4.539063 46.027344 17.769532 26.136718 50.917969-18.441406 30.738281-23.957031 74.292969-1.800781 109.851563zm0 0" fill="#b02721"/><path d="m81.679688 173.957031c10.054687 9.277344 18.527343 19.660157 24.804687 28.28125-1.15625-47.585937 5.550781-100.816406 35.53125-130.71875 0-.113281-.011719-.175781-.011719-.289062-27.0625-25-56.007812-21.132813-72.253906-15.695313-9.8125 3.28125-20.476562 2.753906-30.082031-1.09375l-19.316407-7.726562c-4.261718-1.703125-9.101562.378906-10.785156 4.652344l-8.484375 21.453124c-2.242187 5.675782 2.226563 11.730469 8.308594 11.253907 33.058594-2.578125 57.140625 45.390625 72.289063 89.882812zm0 0" fill="#7383bf"/><path d="m277.457031 361.929688c-2.835937 0-5.613281-1.359376-7.328125-3.882813-3.363281-4.960937-14.757812-18.113281-26.863281-19.4375-6.089844-.707031-11.84375 1.683594-17.6875 7.175781-3.542969 3.347656-9.128906 3.179688-12.484375-.371094-3.335938-3.546874-3.175781-9.136718.371094-12.472656 9.71875-9.164062 20.375-13.171875 31.816406-11.882812 22.730469 2.550781 38.804688 26.113281 39.484375 27.117187 2.71875 4.042969 1.640625 9.527344-2.402344 12.253907-1.5 1.015624-3.210937 1.5-4.90625 1.5zm0 0" fill="#b02721"/></svg>