<svg height="512pt" viewBox="0 -170 512.00163 512" width="512pt" xmlns="http://www.w3.org/2000/svg"><path d="m501.976562 109.40625c-59.890624 70.335938-190.792968 77.707031-237.597656-9.03125-3.589844-6.648438-13.15625-6.589844-16.746094.046875-46.78125 86.558594-177.554687 79.460937-237.574218 8.984375-3.058594-3.597656-3.109375-7.917969-1.363282-11.289062 2.253907-4.402344 7.578126-7.207032 13.222657-4.730469 23.164062 10.136719 51.949219 5.132812 74.398437-11.160157 16.984375-12.332031 30.53125-28.726562 45.839844-43.09375 48.367188-45.351562 87.871094-35.585937 106.058594-10.109374 3.839844 5.375 11.761718 5.375 15.601562 0 18.199219-25.476563 57.703125-35.242188 106.058594 10.109374 15.320312 14.367188 28.867188 30.761719 45.851562 43.09375 22.460938 16.300782 51.265626 21.296876 74.4375 11.136719 5.082032-2.222656 9.925782-.070312 12.453126 3.671875 2.386718 3.507813 2.738281 8.402344-.640626 12.371094zm0 0" fill="#954c35"/><path d="m501.976562 109.40625c-59.890624 70.335938-190.792968 77.707031-237.597656-9.03125-3.589844-6.648438-13.15625-6.589844-16.746094.046875-46.78125 86.558594-177.554687 79.460937-237.574218 8.984375-3.058594-3.597656-3.109375-7.917969-1.363282-11.289062 69.332032 49.421874 99.914063 41.308593 122.453126 25.65625 11.160156-7.761719 15.609374-13.535157 52.539062-48.535157 0 0 12.960938-13.667969 36.535156-15.59375 0 0 19.890625-1.992187 31.992188 7.800781 2.429687 1.964844 5.867187 2.007813 8.453125.253907 5.785156-3.921875 16.445312-9.46875 28.925781-8.054688 23.503906 2.667969 36.539062 15.59375 36.539062 15.59375 36.902344 34.980469 41.371094 40.773438 52.535157 48.535157 22.542969 15.652343 53.121093 23.765624 122.453125-25.65625l1.496094-1.082032c2.386718 3.507813 2.738281 8.402344-.640626 12.371094zm0 0" fill="#7c3f2c"/><path d="m310.480469 138.316406c-16.8125-10.148437-30.097657-24.113281-39.488281-41.515625-6.414063-11.882812-23.550782-11.84375-29.976563.050781-38.402344 71.054688-137.761719 75.042969-200.921875 29.847657 33.957031 17.996093 64.527344 24.660156 95.34375 3.25 12.121094-8.433594 16.867188-14.691407 53.453125-49.28125 16.96875-16.1875 46.664063-17.027344 58.589844-7.378907 4.921875 3.984376 11.988281 4.304688 17.410156.632813 11.878906-8.046875 21.730469-8.183594 33.65625-4.917969 4.011719 1.097656 8.144531-1.261718 9.242187-5.265625 1.097657-4.003906-1.261718-8.140625-5.265624-9.238281-16.230469-4.445312-30.371094-3.582031-45.890626 6.851562-20.253906-15.992187-59.378906-10.589843-78.242187 8.546876-36.332031 34.402343-40.867187 40.277343-51.535156 47.699218-7.167969 4.980469-17.230469 10.695313-31.550781 10.695313-17.148438 0-38.15625-7.859375-63.839844-23.941407 18.894531 4.238282 38.976562.730469 56.375-8.136718 3.699218-1.886719 5.171875-6.414063 3.285156-10.113282-1.882812-3.703124-6.410156-5.171874-10.113281-3.289062-17.488281 8.917969-38.390625 11.421875-56.078125 3.679688-17.394532-7.609376-32.707032 13.5625-20.597656 27.785156 15.125 17.769531 35.253906 32.417968 58.210937 42.367187 69.304687 30.035157 155.164063 14.957031 191.699219-52.644531.75-1.386719 2.761718-1.441406 3.511718-.054688 10.683594 19.796876 25.804688 35.695313 44.949219 47.246094 3.554688 2.144532 8.179688 1.003906 10.324219-2.550781 2.144531-3.558594 1.003906-8.179687-2.550781-10.324219zm0 0"/><path d="m487.144531 86.476562c-7.011719 3.074219-14.726562 4.632813-22.9375 4.632813-40.265625 0-61.714843-31.703125-89.183593-57.457031-23.472657-22.015625-47.550782-33.652344-69.621094-33.652344-19.40625 0-36.347656 8.753906-47.703125 24.652344-.84375 1.183594-2.515625 1.183594-3.359375 0-11.355469-15.894532-28.296875-24.652344-47.703125-24.652344-22.070313 0-46.144531 11.636719-69.621094 33.652344-11.3125 10.605468-22.066406 22.722656-33.25 32.792968-3.085937 2.78125-3.335937 7.535157-.554687 10.621094 2.777343 3.085938 7.535156 3.332032 10.621093.558594 24.613281-22.175781 54.171875-62.582031 92.804688-62.582031 14.417969 0 27.011719 6.515625 35.464843 18.351562 6.832032 9.5625 21.007813 9.566407 27.839844 0 8.453125-11.835937 21.046875-18.351562 35.460938-18.351562 18.179687 0 38.699218 10.226562 59.335937 29.578125 26.671875 25.007812 58.453125 69.882812 112.558594 60.382812-25.203125 15.636719-45.871094 23.289063-62.78125 23.289063-14.320313 0-24.382813-5.71875-31.546875-10.691407-10.671875-7.421874-15.242188-13.332031-50.976562-47.160156-2.996094-2.875-7.753907-2.777344-10.632813.222656-2.875 2.996094-2.773437 7.757813.226563 10.632813 46.371093 40.40625 68.71875 91.65625 156.492187 40.753906-38.984375 31.164063-95.207031 42.597657-141.847656 27.832031-3.960938-1.253906-8.183594.941407-9.4375 4.898438-1.253907 3.960938.941406 8.1875 4.898437 9.441406 60.214844 19.058594 134.460938-1.136718 176.015625-49.945312 12.085938-14.195313-3.433593-35.324219-20.5625-27.800782zm0 0"/></svg>