<?xml version="1.0" encoding="iso-8859-1"?>
<!-- Generator: Adobe Illustrator 22.0.0, SVG Export Plug-In . SVG Version: 6.00 Build 0)  -->
<svg xmlns="http://www.w3.org/2000/svg" xmlns:xlink="http://www.w3.org/1999/xlink" version="1.1" x="0px" y="0px" viewBox="0 0 60 47.989" style="enable-background:new 0 0 60 47.989;" xml:space="preserve" width="512" height="512">
<g id="_x36_4-Human_Mouth">
	<path style="fill:#DD352E;" d="M38.286,1c0,0-3.107,0-5.179,1S30,3,30,3s-1.036,0-3.107-1s-5.179-1-5.179-1C12.393,1,1,22,1,22v1   l0.825,1.593c0.59,1.139,1.099,2.313,1.569,3.503c0.48,1.213,1.119,2.366,1.77,3.494c1.301,2.251,2.671,4.654,4.291,6.677   c3.738,4.668,9.479,7.231,15.266,8.253c2.129,0.376,4.297,0.53,6.458,0.451c5.943-0.215,12.289-2.099,16.839-6.042   c0.951-0.824,1.822-1.742,2.58-2.747c0.84-1.114,1.578-2.324,2.333-3.494c0.715-1.108,1.411-2.23,2.064-3.376   c0.592-1.039,1.17-2.101,1.61-3.215c0.47-1.19,0.98-2.364,1.569-3.503L59,23v-1C59,22,47.607,1,38.286,1z"/>
	<path style="fill:#6D0000;" d="M35.69,9.715c-0.921,0.341-1.876,0.581-2.829,0.819L31,11h-1h-1l-1.861-0.465   c-0.953-0.238-1.908-0.478-2.829-0.819C13.464,5.701,1,22,1,22l3.231,3.495c1.257,1.36,2.379,2.834,3.473,4.328   c3.683,5.027,9.321,8.346,15.584,9.002C27.093,39.223,30,39,30,39s2.907,0.224,6.711-0.175c6.263-0.656,11.901-3.975,15.584-9.002   c1.094-1.494,2.216-2.968,3.473-4.328L59,22C59,22,46.536,5.701,35.69,9.715z"/>
	<path style="fill:#990000;" d="M46.847,30.373l0.194-0.129C35.682,22.263,30,27.937,30,27.937   c-9.816-4.53-15.638-0.51-17.903,1.731l1.056,0.704c0.5,0.333-0.638,2.047-0.828,2.617L12,33.965   c0.351-1.053,2.869-1.388,3.9-0.976l1.482,0.593c0.919,0.367,1.411,1.37,1.139,2.322l-0.138,0.485   c0.349-1.22,1.575-1.968,2.82-1.719l0.577,0.115c1.251,0.25,2.098,1.424,1.939,2.691l0.081-0.645   c0.114-0.915,0.893-2.894,1.815-2.894l2.556,1.699c1.01,0,1.829,0.819,1.829,1.829c0-1.01,0.819-1.829,1.829-1.829h2.556   c0.923,0,1.701,0.687,1.815,1.602l0.081,0.645c-0.158-1.267,0.688-2.44,1.939-2.691l0.577-0.115l2.681,1.234   c-0.272-0.951,0.22-1.954,1.139-2.322l1.483-1c1.031-0.412,3.549-0.077,3.9,0.976l-0.325-0.976   C47.485,32.419,46.347,30.706,46.847,30.373z"/>
	<g>
		<path style="fill:#E7ECED;" d="M38.797,33.44l-0.577,0.115c-1.251,0.25-2.098,1.424-1.939,2.691L36.2,35.602    C36.086,34.687,35.308,34,34.385,34h-2.556C30.819,34,30,34.819,30,35.829C30,34.819,29.181,34,28.171,34h-2.556    c-0.922,0-1.701,0.687-1.815,1.602l-0.081,0.645c0.158-1.267-0.688-2.44-1.939-2.691l-0.577-0.115    c-1.244-0.249-2.471,0.499-2.82,1.719l0.138-0.485c0.272-0.951-0.22-1.954-1.139-2.322L15.9,31.76    c-1.031-0.412-2.196,0.128-2.548,1.182l0.325-0.976c0.19-0.57-0.025-1.197-0.525-1.53l-1.585-1.057    c-0.319-0.212-0.748-0.139-0.977,0.167l-1.493,1.99c1.094,1.221,2.314,2.314,3.636,3.262c1.537,1.102,3.211,2.009,4.984,2.689    c1.804,0.692,3.709,1.153,5.677,1.349l0.001,0C27.147,39.218,30,39,30,39s2.853,0.218,6.604-0.165c0,0,0.001,0,0.001,0    c1.967-0.196,3.872-0.657,5.677-1.349l-0.665-2.326C41.269,33.94,40.042,33.191,38.797,33.44z"/>
		<path style="fill:#E7ECED;" d="M49.409,29.546c-0.23-0.306-0.659-0.38-0.977-0.167l-1.585,1.057c-0.5,0.333-0.715,0.96-0.525,1.53    l0.325,0.976c-0.351-1.053-1.517-1.594-2.547-1.182l-1.483,0.593c-0.918,0.367-1.411,1.37-1.139,2.322l0.803,2.812    c1.773-0.68,3.447-1.586,4.984-2.689c1.322-0.948,2.542-2.04,3.636-3.262L49.409,29.546z"/>
	</g>
	<path style="fill:#E7ECED;" d="M51,14c-1.538-1.229-2.82-2.036-4.608-2.961c-2.173-1.124-4.476-1.885-6.784-1.948   c-1.313-0.036-2.627,0.147-3.918,0.625c-0.921,0.341-1.876,0.581-2.829,0.819L31,11h-1h-1l-1.861-0.465   c-0.953-0.238-1.908-0.478-2.829-0.819c-1.291-0.478-2.605-0.661-3.918-0.625c-2.308,0.063-4.61,0.823-6.784,1.948   C11.82,11.963,10.538,12.77,9,14c-1.808,1.423-3.589,3.112-4.859,4.427l2.216,2.769c0.375,0.469,1.027,0.612,1.564,0.344   l2.053-1.027c0.583-0.292,0.852-0.976,0.623-1.586l0.018-0.129c0.381,0.568,1.085,0.853,1.712,0.539l1.717-0.858   c0.564-0.282,0.87-0.907,0.747-1.526l-0.232-1.158c0.247,1.23,1.425,2.042,2.662,1.836l1.679-0.28   c1.188-0.198,2.029-1.271,1.936-2.472l-0.128-1.659c0.159,2.068,2,3.592,4.061,3.363l1.969-0.219   C28.595,16.156,30,14.586,30,12.718c0,1.868,1.405,3.438,3.262,3.644l1.969,0.219c2.061,0.229,3.901-1.295,4.061-3.363   l-0.128,1.659c-0.093,1.201,0.748,2.274,1.936,2.472l1.679,0.28c1.238,0.206,2.415-0.606,2.662-1.836l-0.232,1.158   c-0.124,0.619,0.182,1.244,0.747,1.526l1.717,0.858c0.72,0.36,1.542-0.068,1.859-0.808l-0.129,0.398   c-0.229,0.61,0.04,1.295,0.623,1.586l2.053,1.027c0.537,0.269,1.189,0.125,1.564-0.344l2.216-2.769   C54.589,17.111,52.808,15.423,51,14z"/>
	<path style="fill:#E7ECED;" d="M30,12.718V11h-1l-1.861-0.465c-0.953-0.238-1.908-0.478-2.829-0.819   c-1.291-0.478-2.605-0.661-3.918-0.625l0.317,4.127c0.159,2.068,2,3.592,4.061,3.363l1.969-0.219   C28.595,16.156,30,14.586,30,12.718z"/>
	<path style="fill:#B8CACC;" d="M13.608,11.039l0.95,4.753c0.246,1.231,1.425,2.044,2.663,1.838l1.679-0.28   c1.188-0.198,2.029-1.271,1.936-2.472l-0.445-5.787C18.084,9.154,15.781,9.914,13.608,11.039z"/>
	<path style="fill:#E7ECED;" d="M10.468,18.528c0.317,0.74,1.139,1.168,1.859,0.808l1.717-0.858c0.564-0.282,0.87-0.907,0.747-1.526   l-1.183-5.913C11.82,11.963,10.538,12.77,9,14L10.468,18.528z"/>
	<path style="fill:#B8CACC;" d="M9.974,20.513c0.583-0.292,0.852-0.976,0.623-1.587L9,14c-1.808,1.423-3.589,3.112-4.859,4.427   l2.216,2.769c0.375,0.469,1.027,0.612,1.564,0.344L9.974,20.513z"/>
	<path style="fill:#B8CACC;" d="M30,12.718V11h1l1.861-0.465c0.953-0.238,1.908-0.478,2.829-0.819   c1.291-0.478,2.605-0.661,3.918-0.625l-0.317,4.127c-0.159,2.068-2,3.592-4.061,3.363l-1.969-0.219   C31.405,16.156,30,14.586,30,12.718z"/>
	<path style="fill:#E7ECED;" d="M46.392,11.039l-0.95,4.753c-0.246,1.231-1.425,2.044-2.663,1.838L41.1,17.35   c-1.188-0.198-2.029-1.271-1.936-2.472l0.445-5.787C41.916,9.154,44.219,9.914,46.392,11.039z"/>
	<path style="fill:#B8CACC;" d="M49.532,18.528c-0.317,0.74-1.139,1.168-1.859,0.808l-1.717-0.858   c-0.564-0.282-0.87-0.907-0.747-1.526l1.183-5.913C48.18,11.963,49.462,12.77,51,14L49.532,18.528z"/>
	<path style="fill:#E7ECED;" d="M50.026,20.513c-0.583-0.292-0.852-0.976-0.623-1.587L51,14c1.808,1.423,3.589,3.112,4.859,4.427   l-2.216,2.769c-0.375,0.469-1.027,0.612-1.564,0.344L50.026,20.513z"/>
	<path style="fill:#E7ECED;" d="M23.8,35.602l-0.404,3.233C27.147,39.218,30,39,30,39v-3.171C30,34.819,29.181,34,28.171,34h-2.556   C24.692,34,23.914,34.687,23.8,35.602z"/>
	<path style="fill:#B8CACC;" d="M18.383,35.16l-0.665,2.326c1.804,0.692,3.71,1.153,5.677,1.349l0.001-0.001l0.324-2.588   c0.158-1.267-0.688-2.441-1.939-2.691l-0.577-0.115C19.959,33.191,18.732,33.94,18.383,35.16z"/>
	<path style="fill:#E7ECED;" d="M17.718,37.486l0.803-2.812c0.272-0.951-0.22-1.954-1.139-2.322L15.9,31.76   c-1.031-0.412-2.196,0.128-2.547,1.182l-0.619,1.856C14.272,35.9,15.945,36.806,17.718,37.486z"/>
	<path style="fill:#B8CACC;" d="M12.734,34.798l0.944-2.832c0.19-0.57-0.025-1.197-0.525-1.53l-1.585-1.057   c-0.319-0.212-0.748-0.139-0.977,0.167l-1.493,1.99C10.192,32.757,11.412,33.85,12.734,34.798z"/>
	<path style="fill:#B8CACC;" d="M36.2,35.602l0.404,3.233C32.853,39.218,30,39,30,39v-3.171C30,34.819,30.819,34,31.829,34h2.556   C35.308,34,36.086,34.687,36.2,35.602z"/>
	<path style="fill:#E7ECED;" d="M41.617,35.16l0.665,2.326c-1.804,0.692-3.71,1.153-5.677,1.349c0,0,0,0-0.001-0.001l-0.324-2.588   c-0.158-1.267,0.688-2.441,1.939-2.691l0.577-0.115C40.042,33.191,41.269,33.94,41.617,35.16z"/>
	<path style="fill:#B8CACC;" d="M42.282,37.486l-0.803-2.812c-0.272-0.951,0.22-1.954,1.139-2.322L44.1,31.76   c1.031-0.412,2.196,0.128,2.547,1.182l0.619,1.856C45.729,35.9,44.055,36.806,42.282,37.486z"/>
	<path style="fill:#E7ECED;" d="M47.266,34.798l-0.944-2.832c-0.19-0.57,0.025-1.197,0.525-1.53l1.585-1.057   c0.319-0.212,0.748-0.139,0.977,0.167l1.493,1.99C49.808,32.757,48.588,33.85,47.266,34.798z"/>
	<path style="fill:#4D007E;" d="M30.088,47.989c-1.848,0-3.706-0.163-5.54-0.487c-4.769-0.842-11.393-3.019-15.873-8.611   c-1.602-2.001-2.932-4.303-4.218-6.528L4.299,32.09c-0.615-1.064-1.314-2.31-1.835-3.628c-0.525-1.327-1.01-2.41-1.528-3.409   L0.112,23.46C0.038,23.317,0,23.16,0,23v-1c0-0.167,0.042-0.33,0.121-0.477C0.598,20.645,11.91,0,21.714,0   c0.136,0,3.362,0.013,5.613,1.1c1.757,0.848,2.663,0.899,2.69,0.9c-0.008-0.001,0.897-0.053,2.654-0.9   C34.924,0.013,38.149,0,38.286,0c9.804,0,21.116,20.645,21.593,21.523C59.959,21.67,60,21.833,60,22v1   c0,0.16-0.038,0.317-0.112,0.46l-0.825,1.593c-0.518,0.999-1.003,2.082-1.528,3.409c-0.437,1.107-0.984,2.137-1.671,3.343   c-0.595,1.045-1.26,2.133-2.092,3.423l-0.459,0.719c-0.601,0.942-1.223,1.918-1.915,2.836c-0.78,1.034-1.697,2.01-2.723,2.9   c-4.329,3.751-10.692,6.042-17.458,6.286C30.841,47.982,30.465,47.989,30.088,47.989z M2,22.757l0.713,1.376   c0.549,1.061,1.062,2.203,1.612,3.595c0.471,1.19,1.128,2.359,1.707,3.361l0.157,0.272c1.249,2.161,2.54,4.396,4.048,6.279   c3.191,3.984,8.397,6.787,14.66,7.893c2.07,0.364,4.173,0.514,6.248,0.438c6.319-0.229,12.231-2.343,16.221-5.8   c0.921-0.798,1.741-1.671,2.437-2.594c0.645-0.854,1.245-1.796,1.825-2.706l0.465-0.728c0.812-1.259,1.458-2.316,2.035-3.329   c0.645-1.132,1.155-2.09,1.549-3.087c0.55-1.392,1.062-2.534,1.612-3.595L58,22.757v-0.502C54.786,16.408,45.349,2,38.286,2   c-0.034,0-2.91,0.016-4.744,0.9C31.328,3.969,30.129,4,30,4s-1.328-0.031-3.542-1.1C24.623,2.015,21.742,2,21.714,2   C14.651,2,5.214,16.408,2,22.255V22.757z M30.019,2h0.01H30.019z"/>
	<path style="fill:#4D007E;" d="M32.137,40.063c-1.129,0-1.896-0.045-2.137-0.061c-0.499,0.032-3.26,0.189-6.816-0.185   c-6.468-0.678-12.404-4.105-16.286-9.405c-1.028-1.403-2.152-2.889-3.401-4.24l-3.231-3.494c-0.33-0.356-0.356-0.899-0.06-1.286   c0.527-0.69,13.045-16.835,24.452-12.614c0.873,0.322,1.814,0.558,2.724,0.786L29.123,10h1.753l1.742-0.436   c0.91-0.229,1.852-0.464,2.724-0.786C46.75,4.556,59.267,20.702,59.794,21.393c0.295,0.387,0.27,0.93-0.06,1.286l-3.231,3.494   c-1.25,1.353-2.373,2.838-3.4,4.24c-3.883,5.3-9.819,8.728-16.287,9.405C34.976,40.012,33.348,40.063,32.137,40.063z M30,38   c0.026,0,0.051,0.001,0.076,0.003c0.028,0.003,2.872,0.211,6.531-0.173c5.908-0.619,11.332-3.754,14.882-8.599   c1.062-1.45,2.227-2.989,3.545-4.416l2.645-2.859c-2.431-2.93-12.811-14.571-21.642-11.303l0,0   c-0.975,0.361-1.971,0.61-2.933,0.851l-1.861,0.466C31.163,11.99,31.082,12,31,12h-2c-0.082,0-0.163-0.01-0.243-0.03l-1.861-0.466   c-0.962-0.24-1.958-0.489-2.933-0.851C15.123,7.387,4.75,19.025,2.321,21.955l2.645,2.86c1.318,1.426,2.483,2.965,3.546,4.416   c3.549,4.845,8.973,7.979,14.882,8.599c3.66,0.385,6.503,0.175,6.531,0.173C29.949,38.001,29.974,38,30,38z"/>
	<path style="fill:#4D007E;" d="M24.354,17.604c-1.082,0-2.119-0.373-2.966-1.074c-0.983-0.814-1.578-1.963-1.676-3.235   l-0.317-4.127c-0.021-0.273,0.071-0.543,0.254-0.746c0.183-0.204,0.442-0.323,0.715-0.331c1.508-0.041,2.952,0.189,4.294,0.688   c0.872,0.322,1.813,0.558,2.724,0.786L29.123,10H30c0.552,0,1,0.447,1,1v1.718c0,2.381-1.784,4.375-4.151,4.639l-1.969,0.219   C24.704,17.595,24.529,17.604,24.354,17.604z M21.473,10.115l0.233,3.025c0.056,0.728,0.396,1.384,0.958,1.85   c0.562,0.465,1.269,0.682,1.996,0.597l1.968-0.219c1.352-0.15,2.372-1.29,2.372-2.65V12c-0.082,0-0.163-0.01-0.243-0.03   l-1.861-0.466c-0.962-0.24-1.958-0.489-2.933-0.851C23.176,10.362,22.342,10.182,21.473,10.115z"/>
	<path style="fill:#4D007E;" d="M16.828,18.662c-1.561,0-2.933-1.09-3.25-2.674l-0.95-4.753c-0.088-0.438,0.125-0.88,0.521-1.084   c2.52-1.305,4.948-1.998,7.216-2.061c0.547-0.006,0.984,0.392,1.025,0.923l0.445,5.786c0.133,1.73-1.057,3.251-2.769,3.536   l-1.679,0.28C17.198,18.647,17.012,18.662,16.828,18.662z M14.739,11.595l0.8,4.001c0.141,0.705,0.807,1.17,1.518,1.048l1.679-0.28   c0.682-0.114,1.157-0.72,1.104-1.409l-0.369-4.795C17.975,10.331,16.39,10.812,14.739,11.595z"/>
	<path style="fill:#4D007E;" d="M11.784,20.466c-0.261,0-0.523-0.046-0.778-0.14c-0.645-0.236-1.176-0.748-1.457-1.405   c-0.012-0.027-0.023-0.057-0.032-0.085l-1.468-4.527c-0.128-0.396,0.002-0.83,0.327-1.09c1.531-1.225,2.87-2.085,4.773-3.068   c0.279-0.145,0.61-0.148,0.893-0.013c0.283,0.136,0.486,0.397,0.547,0.705l1.183,5.912c0.211,1.059-0.315,2.135-1.28,2.617   l-1.717,0.858C12.462,20.387,12.125,20.466,11.784,20.466z M11.402,18.165c0.066,0.134,0.175,0.24,0.292,0.283   c0.089,0.033,0.144,0.015,0.186-0.007l1.717-0.858c0.161-0.08,0.248-0.26,0.213-0.437l-0.917-4.586   c-1,0.565-1.836,1.118-2.725,1.796L11.402,18.165z"/>
	<path style="fill:#4D007E;" d="M7.358,22.671c-0.676,0-1.341-0.299-1.782-0.852L3.36,19.051c-0.314-0.394-0.288-0.958,0.062-1.32   c1.575-1.629,3.382-3.275,4.959-4.517c0.257-0.202,0.597-0.264,0.909-0.171c0.313,0.096,0.559,0.338,0.66,0.648l1.597,4.926   c0.395,1.05-0.083,2.268-1.126,2.79c0,0,0,0-0.001,0l-2.053,1.026C8.047,22.594,7.701,22.671,7.358,22.671z M5.477,18.494   l1.661,2.076c0.08,0.102,0.222,0.134,0.336,0.074l2.054-1.026c0.125-0.063,0.183-0.21,0.134-0.342l-1.16-3.575   C7.503,16.55,6.458,17.514,5.477,18.494z M9.974,20.513h0.01H9.974z"/>
	<path style="fill:#4D007E;" d="M35.646,17.604c-0.174,0-0.35-0.01-0.526-0.029l-1.969-0.219C30.784,17.093,29,15.099,29,12.718V11   c0-0.553,0.448-1,1-1h0.877l1.742-0.436c0.91-0.229,1.852-0.464,2.724-0.786c1.341-0.498,2.784-0.729,4.293-0.688   c0.274,0.008,0.532,0.127,0.715,0.331c0.183,0.203,0.275,0.473,0.254,0.746l-0.317,4.127c-0.098,1.272-0.693,2.421-1.676,3.235   C37.765,17.231,36.728,17.604,35.646,17.604z M31,12v0.718c0,1.36,1.02,2.5,2.373,2.65l1.968,0.219   c0.724,0.086,1.433-0.132,1.995-0.597c0.562-0.466,0.902-1.122,0.958-1.85l0.233-3.025c-0.868,0.066-1.702,0.246-2.489,0.538   c-0.976,0.361-1.971,0.61-2.934,0.851l-1.861,0.466C31.163,11.99,31.082,12,31,12z"/>
	<path style="fill:#4D007E;" d="M43.172,18.663c-0.184,0-0.37-0.016-0.558-0.047l-1.68-0.28c-1.712-0.285-2.902-1.806-2.769-3.536   l0.445-5.786c0.041-0.531,0.48-0.938,1.025-0.923c2.268,0.062,4.696,0.756,7.216,2.061c0.396,0.204,0.608,0.646,0.521,1.084   l-0.95,4.753C46.105,17.572,44.733,18.663,43.172,18.663z M40.529,10.159l-0.369,4.795c-0.053,0.689,0.421,1.295,1.104,1.409   l1.679,0.28c0.709,0.119,1.376-0.342,1.518-1.048l0.8-4.001C43.61,10.812,42.025,10.331,40.529,10.159z"/>
	<path style="fill:#4D007E;" d="M48.216,20.466c-0.34,0-0.677-0.079-0.99-0.235l-1.716-0.858c-0.965-0.482-1.491-1.559-1.28-2.616   l1.183-5.913c0.062-0.308,0.264-0.569,0.547-0.705c0.283-0.136,0.613-0.132,0.893,0.013c1.903,0.983,3.241,1.844,4.773,3.068   c0.325,0.26,0.455,0.694,0.327,1.09l-1.468,4.527c-0.009,0.028-0.02,0.058-0.032,0.085c-0.281,0.657-0.812,1.169-1.457,1.405   C48.739,20.419,48.476,20.466,48.216,20.466z M49.532,18.527h0.01H49.532z M47.108,12.561l-0.918,4.587   c-0.035,0.176,0.053,0.355,0.213,0.436l1.717,0.858c0.042,0.021,0.098,0.04,0.186,0.007c0.116-0.043,0.226-0.149,0.292-0.283   l1.235-3.809C48.944,13.679,48.108,13.126,47.108,12.561z"/>
	<path style="fill:#4D007E;" d="M52.642,22.671c-0.343,0-0.689-0.077-1.01-0.237l-2.053-1.026c0,0,0,0-0.001,0   c-1.043-0.522-1.521-1.74-1.112-2.832l1.583-4.884c0.101-0.311,0.347-0.553,0.66-0.648c0.312-0.093,0.653-0.031,0.909,0.171   c1.577,1.241,3.385,2.888,4.959,4.517c0.35,0.362,0.376,0.927,0.062,1.32l-2.216,2.77C53.983,22.372,53.318,22.671,52.642,22.671z    M50.473,19.618l2.053,1.026c0.115,0.057,0.256,0.026,0.336-0.073l1.661-2.077c-0.981-0.98-2.026-1.944-3.024-2.792l-1.146,3.532   C50.29,19.408,50.347,19.555,50.473,19.618L50.473,19.618z"/>
	<path style="fill:#4D007E;" d="M27.871,40.062c-1.188,0-2.778-0.049-4.577-0.232c-0.268-0.027-0.513-0.162-0.681-0.372   c-0.167-0.211-0.243-0.48-0.21-0.747l0.404-3.233C22.984,34.065,24.191,33,25.615,33h2.556C29.731,33,31,34.27,31,35.829V39   c0,0.522-0.403,0.957-0.924,0.997C30.013,40.002,29.19,40.062,27.871,40.062z M24.516,37.932c1.929,0.149,3.536,0.143,4.484,0.113   v-2.216C29,35.372,28.628,35,28.171,35h-2.556c-0.417,0-0.771,0.312-0.823,0.726l0,0L24.516,37.932z"/>
	<path style="fill:#4D007E;" d="M23.397,39.835c-0.033,0-0.067-0.002-0.101-0.005c-2.028-0.202-4.025-0.677-5.936-1.41   c-0.484-0.186-0.746-0.71-0.603-1.208l0.665-2.326h0h0c0.488-1.709,2.234-2.776,3.978-2.426l0.576,0.115   c1.756,0.351,2.958,2.018,2.736,3.795l-0.323,2.589C24.325,39.464,23.895,39.835,23.397,39.835z M18.937,36.861   c1.17,0.392,2.372,0.68,3.59,0.859l0.2-1.599c0.093-0.743-0.409-1.439-1.143-1.586l-0.577-0.115   c-0.729-0.147-1.459,0.299-1.662,1.014h0L18.937,36.861z"/>
	<path style="fill:#4D007E;" d="M17.718,38.486c-0.121,0-0.243-0.022-0.358-0.066c-1.84-0.706-3.593-1.651-5.208-2.81   c-0.356-0.255-0.505-0.713-0.366-1.129l0.619-1.856c0.254-0.762,0.818-1.393,1.546-1.731c0.729-0.337,1.574-0.36,2.321-0.062   l1.482,0.593c1.4,0.561,2.143,2.076,1.729,3.525l-0.803,2.812c-0.077,0.271-0.264,0.495-0.515,0.62   C18.025,38.451,17.872,38.486,17.718,38.486z M13.92,34.402c1,0.666,2.053,1.245,3.145,1.731L17.56,34.4   c0.131-0.46-0.105-0.941-0.549-1.119l-1.482-0.593c-0.241-0.097-0.502-0.089-0.737,0.02c-0.235,0.109-0.409,0.304-0.49,0.55   L13.92,34.402z"/>
	<path style="fill:#4D007E;" d="M12.734,35.798c-0.207,0-0.411-0.064-0.583-0.188c-1.386-0.994-2.664-2.141-3.799-3.407   c-0.318-0.355-0.341-0.886-0.055-1.267l1.493-1.99c0.547-0.73,1.572-0.907,2.331-0.401l1.587,1.059   c0.873,0.582,1.25,1.683,0.918,2.678l-0.944,2.833c-0.101,0.301-0.338,0.537-0.64,0.635C12.942,35.782,12.838,35.798,12.734,35.798   z M10.399,31.467c0.576,0.596,1.188,1.158,1.83,1.685l0.5-1.503c0.047-0.142-0.007-0.298-0.131-0.381l-1.366-0.911L10.399,31.467z"/>
	<path style="fill:#4D007E;" d="M32.129,40.062c-1.319,0-2.142-0.061-2.205-0.065C29.403,39.957,29,39.522,29,39v-3.171   C29,34.27,30.269,33,31.829,33h2.556c1.424,0,2.631,1.065,2.807,2.478l0.404,3.233c0.033,0.267-0.042,0.536-0.21,0.747   c-0.168,0.21-0.413,0.345-0.681,0.372C34.907,40.014,33.317,40.062,32.129,40.062z M31,38.045c0.95,0.027,2.559,0.035,4.484-0.113   l-0.276-2.206l0,0C35.156,35.312,34.803,35,34.385,35h-2.556C31.372,35,31,35.372,31,35.829V38.045z"/>
	<path style="fill:#4D007E;" d="M36.604,39.836c-0.498,0-0.928-0.371-0.991-0.876l-0.324-2.59c-0.222-1.777,0.979-3.444,2.736-3.795   l0.576-0.115c1.743-0.353,3.49,0.717,3.978,2.426h0c0,0,0,0,0,0l0.664,2.326c0.142,0.498-0.119,1.022-0.603,1.208   c-1.91,0.732-3.907,1.208-5.935,1.411C36.671,39.834,36.637,39.836,36.604,39.836z M39.271,34.394   c-0.092,0-0.185,0.009-0.278,0.027l-0.577,0.115c-0.734,0.146-1.236,0.843-1.143,1.586l0.2,1.599   c1.218-0.18,2.419-0.467,3.59-0.859l-0.407-1.427h0C40.478,34.812,39.899,34.394,39.271,34.394z"/>
	<path style="fill:#4D007E;" d="M42.282,38.486c-0.153,0-0.306-0.035-0.447-0.105c-0.251-0.125-0.438-0.35-0.515-0.62l-0.803-2.812   c-0.414-1.449,0.329-2.965,1.729-3.525l1.483-0.593c0.747-0.298,1.592-0.274,2.321,0.062c0.729,0.339,1.292,0.97,1.546,1.731   l0.619,1.856c0.139,0.416-0.01,0.874-0.366,1.129c-1.616,1.158-3.368,2.104-5.208,2.81C42.524,38.464,42.403,38.486,42.282,38.486z    M44.817,32.621c-0.117,0-0.233,0.022-0.346,0.067l-1.482,0.593c-0.444,0.178-0.68,0.659-0.549,1.119l0.495,1.733   c1.092-0.486,2.144-1.065,3.145-1.731l-0.381-1.145c-0.082-0.246-0.256-0.44-0.49-0.55C45.083,32.65,44.95,32.621,44.817,32.621z"/>
	<path style="fill:#4D007E;" d="M47.266,35.798c-0.104,0-0.208-0.016-0.308-0.049c-0.302-0.098-0.54-0.334-0.64-0.635l-0.944-2.833   c-0.332-0.995,0.046-2.096,0.919-2.678l1.585-1.058c0.761-0.505,1.785-0.329,2.333,0.4l1.493,1.99   c0.286,0.381,0.263,0.911-0.055,1.267c-1.135,1.267-2.413,2.413-3.799,3.407C47.677,35.733,47.472,35.798,47.266,35.798z    M48.767,30.356l-1.366,0.911c-0.125,0.083-0.178,0.239-0.131,0.381l0.501,1.503c0.642-0.526,1.254-1.089,1.83-1.685L48.767,30.356   z"/>
	<g>
		<path style="fill:#4D007E;" d="M42.277,38.408c-0.435,0-0.835-0.286-0.961-0.726l-0.661-2.314    c-0.206-0.711-0.933-1.155-1.661-1.01l-0.577,0.115c-0.733,0.146-1.235,0.843-1.143,1.585v0.001l0,0    c0.069,0.548-0.32,1.048-0.868,1.116c-0.546,0.066-1.048-0.32-1.116-0.868l0,0c0-0.002-0.001-0.004-0.001-0.007l-0.08-0.638    c-0.052-0.414-0.406-0.726-0.823-0.726h-2.556c-0.457,0-0.829,0.372-0.829,0.829c0,0.553-0.448,1-1,1s-1-0.447-1-1    c0-0.457-0.372-0.829-0.829-0.829h-2.556c-0.417,0-0.771,0.312-0.823,0.726l-0.081,0.645c-0.068,0.548-0.565,0.935-1.116,0.868    c-0.548-0.068-0.937-0.568-0.868-1.116l0,0v-0.001c0.092-0.742-0.41-1.438-1.143-1.585l-0.577-0.115    c-0.731-0.146-1.459,0.3-1.663,1.013c-0.152,0.532-0.704,0.834-1.236,0.688c-0.531-0.152-0.838-0.706-0.687-1.236l0.138-0.484    c0.131-0.46-0.105-0.941-0.549-1.119l-1.482-0.593c-0.24-0.097-0.502-0.09-0.737,0.02c-0.235,0.109-0.409,0.304-0.49,0.55    c-0.175,0.524-0.742,0.803-1.265,0.633c-0.524-0.175-0.807-0.741-0.633-1.266l0.325-0.977c0.047-0.142-0.006-0.298-0.131-0.381h0    l-1.056-0.704c-0.25-0.167-0.412-0.437-0.441-0.736c-0.029-0.299,0.078-0.595,0.292-0.807c2.177-2.155,8.283-6.612,18.451-2.187    c1.768-1.297,7.72-4.406,17.771,2.653c0.27,0.189,0.429,0.5,0.425,0.829c-0.004,0.33-0.169,0.637-0.443,0.82l-0.194,0.13    c-0.126,0.084-0.18,0.24-0.133,0.382l0.325,0.977c0.175,0.524-0.109,1.091-0.633,1.266c-0.524,0.169-1.09-0.109-1.265-0.633    c-0.082-0.246-0.256-0.44-0.49-0.55c-0.234-0.108-0.496-0.115-0.737-0.02l-1.483,0.593c-0.444,0.178-0.68,0.659-0.549,1.119    l0.799,2.796c0.026,0.092,0.039,0.184,0.039,0.274c0,0.436-0.286,0.836-0.726,0.962C42.46,38.396,42.368,38.408,42.277,38.408z     M25.615,32.938h2.556c0.697,0,1.335,0.253,1.829,0.673c0.494-0.42,1.132-0.673,1.829-0.673h2.556c0.669,0,1.29,0.235,1.778,0.631    c0.478-0.526,1.12-0.908,1.861-1.056l0.577-0.115c0.753-0.15,1.507-0.038,2.16,0.278c0.316-0.578,0.828-1.051,1.484-1.313    l1.483-0.594c0.539-0.215,1.128-0.263,1.69-0.146c0.028-0.07,0.059-0.14,0.094-0.207c-9.909-6.468-14.757-1.819-14.806-1.77    c-0.296,0.295-0.746,0.374-1.126,0.2c-8.016-3.7-13.135-1.489-15.856,0.707c0.396,0.269,0.688,0.646,0.856,1.069    c0.561-0.116,1.152-0.068,1.69,0.146l1.483,0.593c0.656,0.264,1.169,0.736,1.485,1.314c0.653-0.316,1.407-0.431,2.16-0.278    l0.576,0.115c0.741,0.147,1.383,0.529,1.861,1.056C24.325,33.173,24.946,32.938,25.615,32.938z"/>
	</g>
	<path style="fill:#4D007E;" d="M32,31c-0.261,0-0.522-0.102-0.718-0.304l-2-2.062c-0.384-0.396-0.375-1.029,0.022-1.414   c0.396-0.384,1.029-0.374,1.414,0.021l2,2.062c0.384,0.396,0.375,1.029-0.022,1.414C32.502,30.906,32.251,31,32,31z"/>
</g>

</svg>
