<?xml version="1.0" encoding="iso-8859-1"?>
<!-- Generator: Adobe Illustrator 19.0.0, SVG Export Plug-In . SVG Version: 6.00 Build 0)  -->
<svg version="1.1" id="Layer_1" xmlns="http://www.w3.org/2000/svg" xmlns:xlink="http://www.w3.org/1999/xlink" x="0px" y="0px"
	 viewBox="0 0 507.6 507.6" style="enable-background:new 0 0 507.6 507.6;" xml:space="preserve">
<path style="fill:#FFAB91;" d="M397,317.6V84.8c0-43.6-35.2-79.2-78.8-79.2c-24.8,0-48,12-63.6,32.8c-0.4,0.4-0.8,0.8-1.6,0.8l0,0
	c-0.8,0-1.2-0.4-1.6-0.8C235.8,17.6,213,5.6,188.2,5.6c-44,0-77.2,34-77.2,78.8v233.2c5.2-11.6,13.6-20.8,24-26
	c0-18.8,0-210.4,0-210.4c4.4-28.4,25.6-47.6,51.6-47.6c27.2,0,51.6,22,51.6,39.6V476c0,12,2.4,26,14,26s14-14,14-26l-0.8-390.4
	c0-28,24.4-52,53.2-52c28,0,50.8,21.6,50.8,47.6v208.4C381,294.4,391,304.4,397,317.6z"/>
<path style="fill:#FFCDD2;" d="M234.2,479.2c0-1.2,0-2.4,0-4C233.8,476.8,233.8,478,234.2,479.2z"/>
<g>
	<path style="fill:#E57373;" d="M154.2,290.8c-5.6,0-11.2,1.2-16,3.6c-2.8,1.2-5.2,2.8-7.6,4.4c-0.4,0.4-0.8,0.4-0.8,0.8
		c-7.6,6-13.6,14.4-17.2,24.8c0,0.4-0.4,0.8-0.4,1.2c-0.8,2.8-1.6,6-2.4,9.2c-0.8,4-1.2,8-1.2,12c0,30.8,20.4,56,45.6,56
		c25.2,0,45.6-25.2,45.6-56S179.4,290.8,154.2,290.8z"/>
	<path style="fill:#E57373;" d="M397,329.6c0-0.4-0.4-0.8-0.4-1.2c-0.8-3.2-2-6.8-3.6-9.6c-4.4-9.2-10.4-16.8-18.4-21.6
		c-2.4-1.6-5.2-3.2-8-4c-0.4,0-0.4,0-0.8-0.4c-4-1.6-8.4-2-12.4-2c-25.2,0-45.6,25.2-45.6,56s20.4,56,45.6,56s45.6-25.2,45.6-56
		C399,340.4,398.2,334.8,397,329.6z"/>
</g>
<g>
	<path style="fill:#B2DFDB;" d="M177.4,62.4c-3.2,0-5.6,0.8-7.2,2.4c-6,6-1.2,20.8,10.4,32.8c8,8,18,13.2,25.6,13.2
		c3.2,0,5.6-0.8,7.2-2.4c2.8-2.8,3.2-7.6,1.6-13.6c-2-6.4-6.4-13.2-12-19.2C195,67.6,185,62.4,177.4,62.4z"/>
	<path style="fill:#B2DFDB;" d="M333.4,65.2c-1.6-1.6-4-2.8-7.2-2.8c-7.6,0-17.2,4.8-25.2,13.2c-6,6-10,12.8-12,19.2
		c-1.6,6-1.2,10.8,1.6,13.6c1.6,1.6,4,2.8,7.2,2.8c7.6,0,17.2-5.2,25.2-13.2C334.6,86,339.4,71.2,333.4,65.2z"/>
</g>
<path d="M154.2,408.4c-28.4,0-51.6-27.6-51.6-62s23.2-62,51.6-62s51.6,27.6,51.6,62S182.6,408.4,154.2,408.4z M154.2,292.8
	c-24,0-43.6,24-43.6,54s19.6,54,43.6,54s43.6-24,43.6-54S178.2,292.8,154.2,292.8z"/>
<path d="M353.4,408.4c-28.4,0-51.6-27.6-51.6-62s23.2-62,51.6-62c28.4,0,51.6,27.6,51.6,62S381.8,408.4,353.4,408.4z M353.4,292.8
	c-24,0-43.6,24-43.6,54s19.6,54,43.6,54s43.6-24,43.6-54S377.4,292.8,353.4,292.8z"/>
<path d="M251.8,507.6c-7.6,0-20-4-20-32V72.8c0-13.2-20.4-33.6-45.6-33.6c-22.8,0-41.6,17.2-45.6,42v208c0,2.4-1.6,4-4,4s-4-1.6-4-4
	V80.8c0-0.4,0-0.4,0-0.8c4.4-28.8,26.4-49.2,53.6-49.2c28.4,0,53.6,23.2,53.6,41.6v402.8c0,10.8,2,24,12,24s12-13.2,12-24V125.6
	V85.2c0-29.6,25.2-54.8,54.8-54.8c27.6,0,50,21.2,52.4,49.6v0.8v208c0,2.4-1.6,4-4,4s-4-1.6-4-4V80.4c-2-23.6-20.8-41.6-44.4-41.6
	c-25.6,0-46.8,21.2-46.8,46.8V126v349.6C271.8,503.6,259.4,507.6,251.8,507.6z"/>
<path d="M108.6,329.2c-2.4,0-4-1.6-4-4v-240c0-47.6,36.4-84.8,82.4-84.8c26.8,0,50.4,12,66.8,34c1.2,1.6,0.8,4.4-0.8,5.6
	s-4.4,0.8-5.6-0.8C232.6,19.2,211,8.4,187,8.4c-41.6,0-74.4,34-74.4,76.8v240C112.6,327.2,111,329.2,108.6,329.2z"/>
<path d="M399,333.2c-2.4,0-4-1.6-4-4v-244C395,42.4,360.6,8,318.2,8c-24.8,0-49.2,12-64,31.6c-1.2,1.6-4,2-5.6,0.8s-2-4-0.8-5.6
	C263.8,13.2,290.6,0,318.2,0C365,0,403,38.4,403,85.2v244C403,331.2,401,333.2,399,333.2z"/>
<path d="M206.2,116.8c-8.8,0-20-5.2-29.6-14.8c-14.4-14.4-19.2-32.4-10.4-41.2c4.4-4.4,11.2-5.6,19.6-3.2c7.2,2,15.2,7.2,21.6,13.6
	S219,85.6,221,92.8c2.4,8,1.2,15.2-3.2,19.6C214.6,115.6,210.6,116.8,206.2,116.8z M177.4,64.4c-2.4,0-4.4,0.8-6,2
	c-4.4,4.4-1.2,18,10.4,30c12,12,25.2,15.2,30,10.4c2.4-2.4,2.8-6.4,1.2-11.6c-2-6-6-12.4-11.6-18.4s-12-10-18.4-11.6
	C181,64.8,179.4,64.4,177.4,64.4z"/>
<path d="M297.4,116.8c-4.8,0-8.8-1.6-11.6-4.4c-8.4-8.4-4-26.8,10.4-41.2c14.4-14.4,32.4-19.2,41.2-10.4c8.4,8.4,4,26.8-10.4,41.2
	c-6.4,6.4-14.4,11.6-21.6,13.6C302.6,116.4,300.2,116.8,297.4,116.8z M325.8,64.4c-6.4,0-15.2,4-23.6,12.4
	c-12,12-14.8,25.2-10.4,29.6c2.4,2.4,6.4,2.8,11.6,1.2c6-1.6,12.4-6,18-11.6c12-12,14.8-25.2,10.4-29.6
	C330.6,65.2,328.6,64.4,325.8,64.4z"/>
<g>
</g>
<g>
</g>
<g>
</g>
<g>
</g>
<g>
</g>
<g>
</g>
<g>
</g>
<g>
</g>
<g>
</g>
<g>
</g>
<g>
</g>
<g>
</g>
<g>
</g>
<g>
</g>
<g>
</g>
</svg>
