<?xml version="1.0" encoding="iso-8859-1"?>
<!-- Generator: Adobe Illustrator 19.0.0, SVG Export Plug-In . SVG Version: 6.00 Build 0)  -->
<svg version="1.1" id="Layer_1" xmlns="http://www.w3.org/2000/svg" xmlns:xlink="http://www.w3.org/1999/xlink" x="0px" y="0px"
	 viewBox="0 0 517.09 517.09" style="enable-background:new 0 0 517.09 517.09;" xml:space="preserve">
<g>
	<g>
		<g>
			<circle style="fill:#EDE2D9;" cx="258.545" cy="258.543" r="258.543"/>
			<path style="fill:#F2EBE7;" d="M0.002,258.543c0,142.79,115.753,258.547,258.543,258.547V0
				C115.755,0,0.002,115.753,0.002,258.543z"/>
		</g>
		<g>
			<path style="fill:#E2846F;" d="M258.302,98.667c0,0-6.071,46.74,6.754,58.651c12.829,11.916,34.351,1.849,57.742-14.665
				c23.37-16.501,77.897-17.717,93.48,43.38c15.579,61.098-1.832,170.852-90.731,201.621c-88.895,30.76-87.981-24.13-139.302-38.795
				c-51.317-14.673-54.07,44.725-54.07,69.555H95.989c0,0-5.973-87.887,38.94-105.297c44.908-17.414,68.735,20.159,110.894-2.745
				c42.155-22.913,36.656-76.07,16.492-96.238c-20.159-20.155-38.487-29.326-38.487-115.467
				C223.827,98.667,258.302,98.667,258.302,98.667z"/>
		</g>
		<path style="opacity:0.2;fill:#FFFFFF;enable-background:new    ;" d="M0.002,258.543c0,142.79,115.753,258.547,258.543,258.547V0
			C115.755,0,0.002,115.753,0.002,258.543z"/>
	</g>
</g>
<g>
</g>
<g>
</g>
<g>
</g>
<g>
</g>
<g>
</g>
<g>
</g>
<g>
</g>
<g>
</g>
<g>
</g>
<g>
</g>
<g>
</g>
<g>
</g>
<g>
</g>
<g>
</g>
<g>
</g>
</svg>
